# xmcd
#
# Track frame offsets: 
#        150
#        19682
#        40540
#        53812
#        72591
#        88995
#        111286
#        128962
#        150671
#        168149
#        196684
#        210128
#        234723
#        255561
#        272732
#
# Disc length: 3900 seconds
#
# Revision: 0
# Processed by: cddbd v1.5.2PL0 Copyright (c) Steve Scherf et al.
# Submitted via: ExactAudioCopyFreeDBPlugin 1.0
#
DISCID=c50f3a0f
DTITLE=Michael Schatte - Turn Back The Vikings
DYEAR=2015
DGENRE=blues
TTITLE0=The Rehabilistate
TTITLE1=Nothern Dancer Boulevard
TTITLE2=Honey Doll
TTITLE3=Turn Back The Vikings
TTITLE4=If I Find Love And Live It Be
TTITLE5=Odessa
TTITLE6=Baby's On The Border
TTITLE7=Push, Pull, and Swing
TTITLE8=Pistol On Her Pillow
TTITLE9=All For Me
TTITLE10=Old Ties Gone
TTITLE11=Sam Jones
TTITLE12=Bring You 'Round
TTITLE13=Our Sun Set Early
TTITLE14=Ottawa
EXTD=
EXTT0=
EXTT1=
EXTT2=
EXTT3=
EXTT4=
EXTT5=
EXTT6=
EXTT7=
EXTT8=
EXTT9=
EXTT10=
EXTT11=
EXTT12=
EXTT13=
EXTT14=
PLAYORDER=
